<svg width="180" height="53" viewBox="0 0 180 53" fill="none" xmlns="http://www.w3.org/2000/svg">
<g id="Logo">
<path d="M0.0128412 17.1462C0.0128412 7.15572 7.5271 0 17.8039 0C28.132 0 35.6463 7.15572 35.6463 17.1462C35.6463 27.1366 28.132 34.2924 17.8039 34.2924C7.52941 34.2924 0.0128412 27.1366 0.0128412 17.1462ZM28.1831 17.1462C28.1831 10.9346 24.0937 6.26352 17.8039 6.26352C11.5142 6.26352 7.47599 10.9346 7.47599 17.1462C7.47599 23.3102 11.5142 28.0289 17.8039 28.0289C24.0937 28.0289 28.1831 23.308 28.1831 17.1462Z" fill="white"/>
<path d="M40.723 34.2924V0H47.3264V12.4247C49.3023 9.9503 52.11 8.68786 55.0736 8.68786C61.4713 8.68786 66.2029 13.5356 66.2029 21.5166C66.2029 29.6489 61.4193 34.2924 55.0736 34.2924C52.058 34.2924 49.3023 32.9817 47.3264 30.5555V34.2924H40.723ZM52.9962 28.5839C56.8438 28.5839 59.3916 25.7584 59.3916 21.5142C59.3916 17.2702 56.8438 14.3918 52.9962 14.3918C50.8644 14.3918 48.4183 15.6037 47.3288 17.2196V25.857C48.4183 27.4224 50.862 28.5839 52.9962 28.5839Z" fill="white"/>
<path d="M67.9272 21.4291C67.9272 14.3416 73.2605 8.62099 80.8742 8.62099C88.3304 8.62099 93.407 14.0885 93.407 22.0896V23.507H74.8161C75.2304 26.5975 77.7675 29.1793 82.0157 29.1793C84.1386 29.1793 87.0901 28.268 88.6951 26.747L91.5947 30.9005C89.1094 33.1279 85.1718 34.2924 81.2885 34.2924C73.6746 34.2902 67.9272 29.2782 67.9272 21.4291ZM80.8742 13.7341C76.7836 13.7341 75.0232 16.721 74.7103 19.1509H87.0359C86.8806 16.8221 85.2236 13.7341 80.8742 13.7341Z" fill="white"/>
<path d="M113.969 34.2924V30.5555C111.997 32.9817 109.247 34.2924 106.235 34.2924C99.9048 34.2924 95.1311 29.6489 95.1311 21.5166C95.1311 13.5356 99.853 8.68786 106.235 8.68786C109.193 8.68786 111.995 9.9503 113.969 12.4247V0H120.611V34.2924H113.969ZM113.969 25.8066V17.1692C112.879 15.5533 110.49 14.3918 108.261 14.3918C104.525 14.3918 101.929 17.2702 101.929 21.5142C101.929 25.7056 104.523 28.5839 108.261 28.5839C110.49 28.5839 112.879 27.4224 113.969 25.8066Z" fill="white"/>
<path d="M125.688 30.0297C125.688 27.7119 127.635 25.7671 129.951 25.7671C132.266 25.7671 134.213 27.7119 134.213 30.0297C134.213 32.3451 132.266 34.2923 129.951 34.2923C127.635 34.2923 125.688 32.3451 125.688 30.0297Z" fill="white"/>
<path d="M139.29 9.24316H145.437V12.6651C147.083 10.438 149.987 8.62099 152.892 8.62099V15.0524C152.456 14.9487 151.875 14.8968 151.198 14.8968C149.165 14.8968 146.454 16.1412 145.437 17.7508V34.2924H139.29V9.24316Z" fill="white"/>
<path d="M173.826 34.2923V30.4934C172.221 32.4164 169.4 34.2899 165.558 34.2899C160.4 34.2899 157.969 31.2739 157.969 26.3798V8.52511H164.145V23.7753C164.145 27.2643 165.847 28.4069 168.474 28.4069C170.857 28.4069 172.755 27.0019 173.823 25.5446V8.52511H180V34.2899H173.826V34.2923Z" fill="white"/>
<path d="M6.42485 50.7534L3.79745 47.0227L2.60688 48.2678V50.7534H0V41.0671H2.60688V45.3791L6.36328 41.0671H9.56545L5.64484 45.4592L9.68861 50.7534H6.42485Z" fill="white"/>
<path d="M9.51985 45.8996C9.51985 43.2828 11.3392 41.0671 14.3546 41.0671C17.387 41.0671 19.2085 43.2828 19.2085 45.8996C19.2085 48.5356 17.3891 50.7534 14.3546 50.7534C11.3392 50.7534 9.51985 48.5356 9.51985 45.8996ZM16.7048 45.8996C16.7048 44.467 15.8518 43.2234 14.3546 43.2234C12.8574 43.2234 12.0236 44.467 12.0236 45.8996C12.0236 47.3535 12.8574 48.595 14.3546 48.595C15.8518 48.595 16.7048 47.3535 16.7048 45.8996Z" fill="white"/>
<path d="M29.0683 43.2943H23.7426V50.7534H20.9944V41.0671H29.0683V43.2943Z" fill="white"/>
<path d="M29.0995 48.0969C29.898 47.9663 30.3689 47.6123 30.676 45.4313L31.3106 41.0671H39.3177V48.0057H40.4029V52.3678H37.8028V50.0749H31.7201V52.3678H29.0995V48.0969ZM33.2782 45.5783C33.135 46.678 32.746 47.4817 32.1317 48.0036H36.7201V43.1362H33.5876L33.2782 45.5783Z" fill="white"/>
<path d="M47.9982 49.567C47.4035 50.3141 46.3762 50.7534 45.2409 50.7534C43.8531 50.7534 42.2132 49.758 42.2132 47.6972C42.2132 45.5367 43.8531 44.7175 45.2409 44.7175C46.3943 44.7175 47.4215 45.1164 47.9982 45.8423V44.6008C47.9982 43.6648 47.2412 43.0536 46.088 43.0536C45.1508 43.0536 44.2857 43.4186 43.5449 44.1444L42.6797 42.5187C43.743 41.5256 45.1127 41.0671 46.4844 41.0671C48.4668 41.0671 50.287 41.9075 50.287 44.5625V50.5242H47.9982V49.567ZM47.9982 48.3063V47.1603C47.6197 46.6233 46.8989 46.356 46.16 46.356C45.259 46.356 44.52 46.8526 44.52 47.7503C44.52 48.6098 45.259 49.1087 46.16 49.1087C46.8989 49.1087 47.6197 48.8412 47.9982 48.3063Z" fill="white"/>
<path d="M65.3876 50.7534L63.2744 47.483L61.1421 50.7534H58.4312L61.7184 45.7811L58.6233 41.0671H61.3533L63.2744 44.0568L65.1785 41.0671H67.9063L64.7942 45.7811L68.1198 50.7534H65.3876Z" fill="white"/>
<path d="M68.1197 45.8996C68.1197 43.2828 69.9391 41.0671 72.9545 41.0671C75.9868 41.0671 77.8083 43.2828 77.8083 45.8996C77.8083 48.5356 75.9889 50.7534 72.9545 50.7534C69.9391 50.7534 68.1197 48.5356 68.1197 45.8996ZM75.3046 45.8996C75.3046 44.467 74.4517 43.2234 72.9545 43.2234C71.4573 43.2234 70.6234 44.467 70.6234 45.8996C70.6234 47.3535 71.4573 48.595 72.9545 48.595C74.4517 48.595 75.3046 47.3535 75.3046 45.8996Z" fill="white"/>
<path d="M82.3307 41.0671V43.6947C82.3307 45.0574 83.0773 45.5005 84.5063 45.5005C85.4448 45.5005 86.1061 45.3402 86.5778 45.1197V41.0693H89.308V50.7534H86.5778V47.1661C85.9165 47.5069 84.85 47.7673 83.5678 47.7673C80.6882 47.7673 79.6194 46.5849 79.6194 44.581V41.0716H82.3307V41.0671Z" fill="white"/>
<path d="M91.094 45.8986C91.094 43.2229 93.1218 41.0671 96.0159 41.0671C98.851 41.0671 100.783 43.1295 100.783 46.149V46.6837H93.7125C93.8699 47.8486 94.8347 48.8247 96.449 48.8247C97.2563 48.8247 98.3785 48.4808 98.9887 47.9058L100.091 49.4717C99.1463 50.312 97.6501 50.7534 96.1713 50.7534C93.2794 50.7513 91.094 48.8607 91.094 45.8986ZM96.0159 42.9958C94.4606 42.9958 93.7913 44.1226 93.6731 45.0393H98.3609C98.302 44.1607 97.6719 42.9958 96.0159 42.9958Z" fill="white"/>
<path d="M104.76 50.7534V43.2943H102.022V41.0671H110.096V43.2943H107.356V50.7534H104.76Z" fill="white"/>
<path d="M111.311 45.8996C111.311 43.0726 113.243 41.0671 115.935 41.0671C117.722 41.0671 118.807 41.8885 119.385 42.7289L117.884 44.2187C117.469 43.5671 116.837 43.2234 116.043 43.2234C114.653 43.2234 113.676 44.2952 113.676 45.8996C113.676 47.5041 114.651 48.595 116.043 48.595C116.837 48.595 117.469 48.213 117.884 47.6018L119.385 49.0704C118.807 49.9299 117.722 50.7534 115.935 50.7534C113.243 50.7534 111.311 48.7478 111.311 45.8996Z" fill="white"/>
<path d="M121.055 50.7534L123.388 47.2455C122.24 46.9649 121.159 45.9625 121.159 44.2364C121.159 42.5304 122.409 41.0671 124.638 41.0671H130.744V50.7534H128.096V47.4258H126.034L124.055 50.7534H121.055ZM128.096 45.2989V43.2142H125.055C124.326 43.2142 123.847 43.6328 123.847 44.2364C123.847 44.8578 124.305 45.2989 125.055 45.2989H128.096Z" fill="white"/>
<path d="M138.894 45.8986C138.894 43.223 140.921 41.0671 143.816 41.0671C146.651 41.0671 148.582 43.1295 148.582 46.149V46.6837H141.512C141.67 47.8487 142.634 48.8247 144.249 48.8247C145.056 48.8247 146.178 48.4809 146.788 47.9058L147.891 49.4718C146.946 50.3121 145.45 50.7534 143.971 50.7534C141.079 50.7513 138.894 48.8607 138.894 45.8986ZM143.816 42.9958C142.26 42.9958 141.591 44.1227 141.473 45.0393H146.161C146.102 44.1608 145.472 42.9958 143.816 42.9958Z" fill="white"/>
<path d="M150.419 45.8996C150.419 43.0726 152.351 41.0671 155.043 41.0671C156.83 41.0671 157.915 41.8885 158.493 42.7289L156.992 44.2187C156.577 43.5671 155.945 43.2234 155.151 43.2234C153.761 43.2234 152.784 44.2952 152.784 45.8996C152.784 47.5041 153.759 48.595 155.151 48.595C155.945 48.595 156.577 48.213 156.992 47.6018L158.491 49.0704C157.913 49.9299 156.828 50.7534 155.04 50.7534C152.351 50.7534 150.419 48.7478 150.419 45.8996Z" fill="white"/>
<path d="M163.085 50.7534V43.2943H160.345V41.0671H168.419V43.2943H165.68V50.7534H163.085Z" fill="white"/>
<path d="M172.946 41.0671V44.3968H176.421C178.778 44.3968 179.96 45.8602 179.96 47.564C179.96 49.2879 178.697 50.7534 176.421 50.7534H170.271V41.0671H172.946ZM172.946 46.5216V48.6085H176.02C176.777 48.6085 177.22 48.1676 177.22 47.564C177.22 46.9627 176.777 46.5216 176.02 46.5216H172.946Z" fill="white"/>
</g>
</svg>
